<svg width="20" height="19" viewBox="0 0 20 19" fill="none" xmlns="http://www.w3.org/2000/svg">
  <path d="M4.57377 19V6.18073H0.312912V19H4.57377ZM2.44389 4.42943C3.92973 4.42943 4.85459 3.44506 4.85459 2.21492C4.82691 0.957048 3.92979 0 2.47209 0C1.01462 0 0.0615234 0.957067 0.0615234 2.21492C0.0615234 3.44511 0.986157 4.42943 2.41608 4.42943H2.44376H2.44389ZM6.93215 19H11.193V11.8411C11.193 11.458 11.2207 11.0752 11.3332 10.8013C11.6412 10.0358 12.3423 9.24302 13.5193 9.24302C15.0612 9.24302 15.678 10.4186 15.678 12.1419V18.9999H19.9386V11.6495C19.9386 7.71188 17.8365 5.87977 15.0331 5.87977C12.7345 5.87977 11.7253 7.16459 11.1647 8.03967H11.1931V6.18047H6.93224C6.98816 7.38335 6.93224 18.9997 6.93224 18.9997L6.93215 19Z" fill="#0C646F"/>
</svg>
