<svg width="18" height="20" viewBox="0 0 18 20" fill="none" xmlns="http://www.w3.org/2000/svg">
  <path d="M9.42112 0.515544C10.4573 0.499512 11.4875 0.509012 12.5165 0.499512C12.5789 1.71142 13.0147 2.94589 13.9018 3.80272C14.7871 4.68092 16.0394 5.08291 17.2579 5.21889V8.4069C16.116 8.36949 14.9688 8.13198 13.9327 7.64033C13.4814 7.43607 13.061 7.17302 12.6495 6.90404C12.6442 9.21741 12.659 11.5278 12.6347 13.8317C12.5729 14.9385 12.2077 16.04 11.5641 16.952C10.5285 18.4703 8.73115 19.4601 6.88508 19.491C5.75274 19.5557 4.62158 19.247 3.65669 18.6781C2.05763 17.7352 0.932417 16.0091 0.768533 14.1565C0.74789 13.7641 0.74472 13.3711 0.759033 12.9784C0.90154 11.472 1.64674 10.0309 2.80342 9.05056C4.11449 7.90872 5.95106 7.36482 7.67065 7.68664C7.68668 8.85936 7.63978 10.0309 7.63978 11.2036C6.8542 10.9495 5.93622 11.0207 5.2498 11.4975C4.74761 11.8284 4.3681 12.3151 4.16971 12.8828C4.00583 13.2842 4.05274 13.7302 4.06224 14.1565C4.25047 15.4557 5.49979 16.5476 6.83342 16.4295C7.71756 16.42 8.56489 15.907 9.02566 15.1558C9.1747 14.8928 9.34155 14.6238 9.35046 14.3144C9.42825 12.8983 9.39737 11.488 9.40687 10.0719C9.4134 6.88029 9.39737 3.69762 9.42171 0.516138L9.42112 0.515544Z" fill="#0C646F"/>
</svg>
