<svg width="37" height="67" viewBox="0 0 37 67" fill="none" xmlns="http://www.w3.org/2000/svg">
<path d="M9.04051 65.5532C8.9373 65.5643 8.83882 65.5759 8.73828 65.5873C9.43177 66.4854 10.5006 66.9998 11.6107 66.9998C12.1082 66.9998 12.6139 66.8968 13.0971 66.6791C14.3386 66.1204 15.5653 65.705 16.7669 65.3976C15.819 65.2956 14.8458 65.2394 13.8373 65.2385C12.0443 65.2385 10.4062 65.3976 9.04051 65.5532Z" fill="#0C646F"/>
<path d="M8.40822 51.9346C6.68144 52.8437 4.92744 53.8586 3.41446 55.0391C2.6562 55.6388 1.94878 56.2719 1.30941 57.0985C0.991197 57.515 0.687789 57.986 0.438468 58.5662C0.192417 59.1433 0.00078503 59.8493 0.00020965 60.6505C-0.00839078 61.5014 0.248017 62.4349 0.696057 63.1705C1.03971 63.7539 1.52766 64.22 1.98636 64.518C2.68518 64.9707 3.28136 65.1195 3.76047 65.2112C4.24488 65.2967 4.64235 65.312 5.01971 65.3138C6.1358 65.3032 7.17472 65.1591 8.37775 65.0169C8.57178 64.9941 8.76901 64.9712 8.97248 64.9489C10.418 64.7839 12.0558 64.6304 13.8379 64.6304C15.3127 64.6316 16.8769 64.737 18.4998 65.0233C20.245 65.3311 22.0581 65.8486 23.9044 66.6794C24.3873 66.897 24.8927 67 25.3899 67C26.7168 67.0001 27.9852 66.2648 28.6229 65.0172C28.6518 64.9602 28.6814 64.9036 28.7077 64.8446C29.529 63.0061 28.7107 60.8478 26.8798 60.0229C23.9742 58.7133 21.1322 57.9979 18.4993 57.6409C16.8819 57.4216 15.3432 57.3372 13.9178 57.3348C14.2087 57.1969 14.4927 57.0649 14.7659 56.9401C15.6638 56.5286 16.4522 56.1887 17.0099 55.9551C17.0691 55.9303 17.1238 55.9073 17.1776 55.8849H18.6658H19.8239C20.5401 56.1835 21.7385 56.6986 23.0817 57.3347C22.3355 57.3358 21.5571 57.3608 20.7539 57.4144C22.9758 57.8723 25.1063 58.557 27.1282 59.4684C29.2602 60.4294 30.2168 62.952 29.2602 65.0933C30.2029 65.2066 31.0662 65.3053 31.9809 65.3138C32.4845 65.3074 33.0204 65.2942 33.7565 65.0908C34.1235 64.9847 34.5508 64.8221 35.0134 64.5191C35.4715 64.2205 35.96 63.7548 36.3045 63.171C36.7487 62.4341 37.0081 61.5104 36.9998 60.6508C36.9998 59.8491 36.8082 59.1433 36.5621 58.5665C36.0866 57.4826 35.4596 56.7623 34.814 56.1124C33.6749 54.9981 32.3648 54.1118 30.9713 53.2656C29.5636 52.4216 28.0627 51.6422 26.6908 50.9785V34.7284C30.9586 28.8057 32.7386 24.1078 32.7504 20.0072C32.7581 17.3379 31.9445 15.0344 30.806 13.1749C29.0925 10.3806 26.7689 8.44312 25.0977 6.71355C24.2563 5.85737 23.5809 5.06711 23.1668 4.36576C22.7499 3.65475 22.5763 3.08965 22.5712 2.43196C22.5712 1.08876 21.4865 0.000425593 20.1483 0.000425593C19.511 0.000425593 18.9328 0.249367 18.5005 0.653103C18.0678 0.249063 17.4896 0 16.8517 0C15.5141 0 14.4294 1.08891 14.4294 2.43254C14.4238 3.29226 14.1121 4.0594 13.3354 5.09575C12.1909 6.63502 10.0525 8.37038 8.06429 10.6419C7.07388 11.7869 6.12071 13.0958 5.40918 14.652C4.69677 16.2045 4.24606 18.0093 4.2493 20.0071C4.26054 24.1079 6.04177 28.8066 10.3101 34.7293V50.3055V50.9791C9.69468 51.2766 9.05382 51.5968 8.40822 51.9346ZM9.09492 20.0071C9.10231 18.2962 9.56101 16.991 10.3317 15.7062C11.4809 13.784 13.4523 12.0505 15.3594 10.1215C16.3076 9.14879 17.2427 8.11299 17.9918 6.86214C18.1757 6.5562 18.347 6.23351 18.501 5.89626C18.8627 6.68847 19.3217 7.40705 19.8129 8.04723C21.5314 10.2721 23.6876 11.9699 25.2778 13.8327C26.0778 14.7553 26.734 15.6884 27.1859 16.6789C27.6363 17.6734 27.9015 18.7205 27.9048 20.0072C27.9149 22.3617 26.9253 25.7115 23.7935 30.3953H13.2062C10.0741 25.7113 9.08399 22.3614 9.09492 20.0071Z" fill="#0C646F"/>
<path d="M16.9558 28.1792C20.62 29.0357 24.2821 26.7483 25.1353 23.0698C25.9885 19.3915 23.7092 15.7154 20.0457 14.8586C16.3815 14.0025 12.7192 16.2898 11.8657 19.9681C11.0125 23.6466 13.2914 27.3227 16.9558 28.1792Z" fill="#0C646F"/>
</svg>
